<svg xmlns="http://www.w3.org/2000/svg" fill="none" viewBox="0 0 16 16"><path stroke="#000" stroke-linecap="round" stroke-linejoin="round" stroke-width="1.333" d="M8.026 6.6c-.372 0-.73.147-.993.41A1.4 1.4 0 0 0 6.62 8c0 .714-.07 1.757-.183 2.8m2.993-2.016c0 1.666 0 4.466-.702 6.216m3.014-.686c.084-.42.302-1.61.351-2.114M1 8c0-1.47.464-2.901 1.326-4.093a7.02 7.02 0 0 1 3.478-2.548 7.05 7.05 0 0 1 4.317-.04A7.03 7.03 0 0 1 13.647 3.8M1 10.8h.007m13.905 0c.14-1.4.092-3.748 0-4.2M3.108 13.25c.351-1.05.702-3.15.702-5.25 0-.477.08-.95.24-1.4M5.671 15c.148-.462.317-.924.4-1.4m-.154-9.24a4.23 4.23 0 0 1 5.76 1.54c.37.638.564 1.363.564 2.1v1.4"/></svg>